<svg aria-roledescription="er" role="graphics-document document" viewBox="0 0 1151.7054443359375 757" style="max-width: 1151.71px; background-color: white;" xmlns:xlink="http://www.w3.org/1999/xlink" xmlns="http://www.w3.org/2000/svg" width="100%" id="my-svg"><style>#my-svg{font-family:"trebuchet ms",verdana,arial,sans-serif;font-size:16px;fill:#ccc;}#my-svg .error-icon{fill:#a44141;}#my-svg .error-text{fill:#ddd;stroke:#ddd;}#my-svg .edge-thickness-normal{stroke-width:2px;}#my-svg .edge-thickness-thick{stroke-width:3.5px;}#my-svg .edge-pattern-solid{stroke-dasharray:0;}#my-svg .edge-pattern-dashed{stroke-dasharray:3;}#my-svg .edge-pattern-dotted{stroke-dasharray:2;}#my-svg .marker{fill:lightgrey;stroke:lightgrey;}#my-svg .marker.cross{stroke:lightgrey;}#my-svg svg{font-family:"trebuchet ms",verdana,arial,sans-serif;font-size:16px;}#my-svg .entityBox{fill:#1f2020;stroke:#81B1DB;}#my-svg .attributeBoxOdd{fill:hsl(0, 0%, 32%);stroke:#81B1DB;}#my-svg .attributeBoxEven{fill:hsl(0, 0%, 22%);stroke:#81B1DB;}#my-svg .relationshipLabelBox{fill:hsl(20, 1.5873015873%, 12.3529411765%);opacity:0.7;background-color:hsl(20, 1.5873015873%, 12.3529411765%);}#my-svg .relationshipLabelBox rect{opacity:0.5;}#my-svg .relationshipLine{stroke:lightgrey;}#my-svg .entityTitleText{text-anchor:middle;font-size:18px;fill:#ccc;}#my-svg #MD_PARENT_START{fill:#f5f5f5!important;stroke:lightgrey!important;stroke-width:1;}#my-svg #MD_PARENT_END{fill:#f5f5f5!important;stroke:lightgrey!important;stroke-width:1;}#my-svg :root{--mermaid-font-family:"trebuchet ms",verdana,arial,sans-serif;}</style><g/><defs><marker orient="auto" markerHeight="240" markerWidth="190" refY="7" refX="0" id="MD_PARENT_START"><path d="M 18,7 L9,13 L1,7 L9,1 Z"/></marker></defs><defs><marker orient="auto" markerHeight="28" markerWidth="20" refY="7" refX="19" id="MD_PARENT_END"><path d="M 18,7 L9,13 L1,7 L9,1 Z"/></marker></defs><defs><marker orient="auto" markerHeight="18" markerWidth="18" refY="9" refX="0" id="ONLY_ONE_START"><path d="M9,0 L9,18 M15,0 L15,18" fill="none" stroke="gray"/></marker></defs><defs><marker orient="auto" markerHeight="18" markerWidth="18" refY="9" refX="18" id="ONLY_ONE_END"><path d="M3,0 L3,18 M9,0 L9,18" fill="none" stroke="gray"/></marker></defs><defs><marker orient="auto" markerHeight="18" markerWidth="30" refY="9" refX="0" id="ZERO_OR_ONE_START"><circle r="6" cy="9" cx="21" fill="white" stroke="gray"/><path d="M9,0 L9,18" fill="none" stroke="gray"/></marker></defs><defs><marker orient="auto" markerHeight="18" markerWidth="30" refY="9" refX="30" id="ZERO_OR_ONE_END"><circle r="6" cy="9" cx="9" fill="white" stroke="gray"/><path d="M21,0 L21,18" fill="none" stroke="gray"/></marker></defs><defs><marker orient="auto" markerHeight="36" markerWidth="45" refY="18" refX="18" id="ONE_OR_MORE_START"><path d="M0,18 Q 18,0 36,18 Q 18,36 0,18 M42,9 L42,27" fill="none" stroke="gray"/></marker></defs><defs><marker orient="auto" markerHeight="36" markerWidth="45" refY="18" refX="27" id="ONE_OR_MORE_END"><path d="M3,9 L3,27 M9,18 Q27,0 45,18 Q27,36 9,18" fill="none" stroke="gray"/></marker></defs><defs><marker orient="auto" markerHeight="36" markerWidth="57" refY="18" refX="18" id="ZERO_OR_MORE_START"><circle r="6" cy="18" cx="48" fill="white" stroke="gray"/><path d="M0,18 Q18,0 36,18 Q18,36 0,18" fill="none" stroke="gray"/></marker></defs><defs><marker orient="auto" markerHeight="36" markerWidth="57" refY="18" refX="39" id="ZERO_OR_MORE_END"><circle r="6" cy="18" cx="9" fill="white" stroke="gray"/><path d="M21,18 Q39,0 57,18 Q39,36 21,18" fill="none" stroke="gray"/></marker></defs><path style="stroke: gray; fill: none;" marker-start="url(#ZERO_OR_ONE_START)" marker-end="url(#ONLY_ONE_END)" d="M480.344,256.678L411.953,289.399C343.563,322.119,206.781,387.559,138.391,442.613C70,497.667,70,542.333,70,564.667L70,587" class="er relationshipLine"/><path style="stroke: gray; fill: none;" marker-start="url(#ZERO_OR_ONE_START)" marker-end="url(#ZERO_OR_ONE_END)" d="M480.344,286.325L445.286,314.104C410.229,341.884,340.115,397.442,305.057,433.554C270,469.667,270,486.333,270,494.667L270,503" class="er relationshipLine"/><path style="stroke: gray; fill: none;" marker-start="url(#ZERO_OR_ONE_START)" marker-end="url(#ZERO_OR_ONE_END)" d="M494.17,403L490.663,411.333C487.155,419.667,480.14,436.333,476.633,468.75C473.125,501.167,473.125,549.333,473.125,573.417L473.125,597.5" class="er relationshipLine"/><path style="stroke: gray; fill: none;" marker-start="url(#ZERO_OR_ONE_START)" marker-end="url(#ZERO_OR_ONE_END)" d="M655.377,403L658.884,411.333C662.392,419.667,669.407,436.333,672.914,467C676.422,497.667,676.422,542.333,676.422,564.667L676.422,587" class="er relationshipLine"/><path style="stroke: gray; fill: none;" marker-start="url(#ZERO_OR_ONE_START)" marker-end="url(#ZERO_OR_ONE_END)" d="M669.203,286.535L704.119,314.279C739.034,342.023,808.865,397.512,843.781,442.006C878.696,486.5,878.696,520,878.696,536.75L878.696,553.5" class="er relationshipLine"/><path style="stroke: gray; fill: none;" marker-start="url(#ZERO_OR_ONE_START)" marker-end="url(#ZERO_OR_ONE_END)" d="M669.203,256.526L737.878,289.272C806.553,322.017,943.903,387.509,1012.577,440.838C1081.252,494.167,1081.252,535.333,1081.252,555.917L1081.252,576.5" class="er relationshipLine"/><g transform="translate(20,587 )" id="entity-authority-52a492b3-cb49-5fa2-b660-126e34e3c824"><rect height="66" width="100" y="0" x="0" class="er entityBox"/><text style="dominant-baseline: middle; text-anchor: middle; font-size: 12px;" transform="translate(50,12)" y="0" x="0" id="text-entity-authority-52a492b3-cb49-5fa2-b660-126e34e3c824" class="er entityLabel">authority</text><rect height="21" width="50" y="24" x="0" class="er attributeBoxOdd"/><text style="dominant-baseline: middle; font-size: 10.2px;" transform="translate(5,34.5)" y="0" x="0" id="text-entity-authority-52a492b3-cb49-5fa2-b660-126e34e3c824-attr-1-type" class="er entityLabel">ADMIN</text><rect height="21" width="50" y="24" x="50" class="er attributeBoxOdd"/><text style="dominant-baseline: middle; font-size: 10.2px;" transform="translate(55,34.5)" y="0" x="0" id="text-entity-authority-52a492b3-cb49-5fa2-b660-126e34e3c824-attr-1-name" class="er entityLabel">ADMIN</text><rect height="21" width="50" y="45" x="0" class="er attributeBoxEven"/><text style="dominant-baseline: middle; font-size: 10.2px;" transform="translate(5,55.5)" y="0" x="0" id="text-entity-authority-52a492b3-cb49-5fa2-b660-126e34e3c824-attr-2-type" class="er entityLabel">USER</text><rect height="21" width="50" y="45" x="50" class="er attributeBoxEven"/><text style="dominant-baseline: middle; font-size: 10.2px;" transform="translate(55,55.5)" y="0" x="0" id="text-entity-authority-52a492b3-cb49-5fa2-b660-126e34e3c824-attr-2-name" class="er entityLabel">USER</text></g><g transform="translate(220,503 )" id="entity-kup-c9ea7231-dc66-5acc-bad7-61a9cf82697c"><rect height="234" width="100" y="0" x="0" class="er entityBox"/><text style="dominant-baseline: middle; text-anchor: middle; font-size: 12px;" transform="translate(50,12)" y="0" x="0" id="text-entity-kup-c9ea7231-dc66-5acc-bad7-61a9cf82697c" class="er entityLabel">kup</text><rect height="21" width="50" y="24" x="0" class="er attributeBoxOdd"/><text style="dominant-baseline: middle; font-size: 10.2px;" transform="translate(5,34.5)" y="0" x="0" id="text-entity-kup-c9ea7231-dc66-5acc-bad7-61a9cf82697c-attr-1-type" class="er entityLabel">one</text><rect height="21" width="50" y="24" x="50" class="er attributeBoxOdd"/><text style="dominant-baseline: middle; font-size: 10.2px;" transform="translate(55,34.5)" y="0" x="0" id="text-entity-kup-c9ea7231-dc66-5acc-bad7-61a9cf82697c-attr-1-name" class="er entityLabel">one</text><rect height="21" width="50" y="45" x="0" class="er attributeBoxEven"/><text style="dominant-baseline: middle; font-size: 10.2px;" transform="translate(5,55.5)" y="0" x="0" id="text-entity-kup-c9ea7231-dc66-5acc-bad7-61a9cf82697c-attr-2-type" class="er entityLabel">two</text><rect height="21" width="50" y="45" x="50" class="er attributeBoxEven"/><text style="dominant-baseline: middle; font-size: 10.2px;" transform="translate(55,55.5)" y="0" x="0" id="text-entity-kup-c9ea7231-dc66-5acc-bad7-61a9cf82697c-attr-2-name" class="er entityLabel">two</text><rect height="21" width="50" y="66" x="0" class="er attributeBoxOdd"/><text style="dominant-baseline: middle; font-size: 10.2px;" transform="translate(5,76.5)" y="0" x="0" id="text-entity-kup-c9ea7231-dc66-5acc-bad7-61a9cf82697c-attr-3-type" class="er entityLabel">three</text><rect height="21" width="50" y="66" x="50" class="er attributeBoxOdd"/><text style="dominant-baseline: middle; font-size: 10.2px;" transform="translate(55,76.5)" y="0" x="0" id="text-entity-kup-c9ea7231-dc66-5acc-bad7-61a9cf82697c-attr-3-name" class="er entityLabel">three</text><rect height="21" width="50" y="87" x="0" class="er attributeBoxEven"/><text style="dominant-baseline: middle; font-size: 10.2px;" transform="translate(5,97.5)" y="0" x="0" id="text-entity-kup-c9ea7231-dc66-5acc-bad7-61a9cf82697c-attr-4-type" class="er entityLabel">four</text><rect height="21" width="50" y="87" x="50" class="er attributeBoxEven"/><text style="dominant-baseline: middle; font-size: 10.2px;" transform="translate(55,97.5)" y="0" x="0" id="text-entity-kup-c9ea7231-dc66-5acc-bad7-61a9cf82697c-attr-4-name" class="er entityLabel">four</text><rect height="21" width="50" y="108" x="0" class="er attributeBoxOdd"/><text style="dominant-baseline: middle; font-size: 10.2px;" transform="translate(5,118.5)" y="0" x="0" id="text-entity-kup-c9ea7231-dc66-5acc-bad7-61a9cf82697c-attr-5-type" class="er entityLabel">five</text><rect height="21" width="50" y="108" x="50" class="er attributeBoxOdd"/><text style="dominant-baseline: middle; font-size: 10.2px;" transform="translate(55,118.5)" y="0" x="0" id="text-entity-kup-c9ea7231-dc66-5acc-bad7-61a9cf82697c-attr-5-name" class="er entityLabel">five</text><rect height="21" width="50" y="129" x="0" class="er attributeBoxEven"/><text style="dominant-baseline: middle; font-size: 10.2px;" transform="translate(5,139.5)" y="0" x="0" id="text-entity-kup-c9ea7231-dc66-5acc-bad7-61a9cf82697c-attr-6-type" class="er entityLabel">six</text><rect height="21" width="50" y="129" x="50" class="er attributeBoxEven"/><text style="dominant-baseline: middle; font-size: 10.2px;" transform="translate(55,139.5)" y="0" x="0" id="text-entity-kup-c9ea7231-dc66-5acc-bad7-61a9cf82697c-attr-6-name" class="er entityLabel">six</text><rect height="21" width="50" y="150" x="0" class="er attributeBoxOdd"/><text style="dominant-baseline: middle; font-size: 10.2px;" transform="translate(5,160.5)" y="0" x="0" id="text-entity-kup-c9ea7231-dc66-5acc-bad7-61a9cf82697c-attr-7-type" class="er entityLabel">seven</text><rect height="21" width="50" y="150" x="50" class="er attributeBoxOdd"/><text style="dominant-baseline: middle; font-size: 10.2px;" transform="translate(55,160.5)" y="0" x="0" id="text-entity-kup-c9ea7231-dc66-5acc-bad7-61a9cf82697c-attr-7-name" class="er entityLabel">seven</text><rect height="21" width="50" y="171" x="0" class="er attributeBoxEven"/><text style="dominant-baseline: middle; font-size: 10.2px;" transform="translate(5,181.5)" y="0" x="0" id="text-entity-kup-c9ea7231-dc66-5acc-bad7-61a9cf82697c-attr-8-type" class="er entityLabel">eight</text><rect height="21" width="50" y="171" x="50" class="er attributeBoxEven"/><text style="dominant-baseline: middle; font-size: 10.2px;" transform="translate(55,181.5)" y="0" x="0" id="text-entity-kup-c9ea7231-dc66-5acc-bad7-61a9cf82697c-attr-8-name" class="er entityLabel">eight</text><rect height="21" width="50" y="192" x="0" class="er attributeBoxOdd"/><text style="dominant-baseline: middle; font-size: 10.2px;" transform="translate(5,202.5)" y="0" x="0" id="text-entity-kup-c9ea7231-dc66-5acc-bad7-61a9cf82697c-attr-9-type" class="er entityLabel">nine</text><rect height="21" width="50" y="192" x="50" class="er attributeBoxOdd"/><text style="dominant-baseline: middle; font-size: 10.2px;" transform="translate(55,202.5)" y="0" x="0" id="text-entity-kup-c9ea7231-dc66-5acc-bad7-61a9cf82697c-attr-9-name" class="er entityLabel">nine</text><rect height="21" width="50" y="213" x="0" class="er attributeBoxEven"/><text style="dominant-baseline: middle; font-size: 10.2px;" transform="translate(5,223.5)" y="0" x="0" id="text-entity-kup-c9ea7231-dc66-5acc-bad7-61a9cf82697c-attr-10-type" class="er entityLabel">ten</text><rect height="21" width="50" y="213" x="50" class="er attributeBoxEven"/><text style="dominant-baseline: middle; font-size: 10.2px;" transform="translate(55,223.5)" y="0" x="0" id="text-entity-kup-c9ea7231-dc66-5acc-bad7-61a9cf82697c-attr-10-name" class="er entityLabel">ten</text></g><g transform="translate(420,597.5 )" id="entity-weightclass-b53b802a-2e20-5b58-895f-ffd31a72f32e"><rect height="45" width="106.25" y="0" x="0" class="er entityBox"/><text style="dominant-baseline: middle; text-anchor: middle; font-size: 12px;" transform="translate(53.125,12)" y="0" x="0" id="text-entity-weightclass-b53b802a-2e20-5b58-895f-ffd31a72f32e" class="er entityLabel">weight_class</text><rect height="21" width="53.125" y="24" x="0" class="er attributeBoxOdd"/><text style="dominant-baseline: middle; font-size: 10.2px;" transform="translate(5,34.5)" y="0" x="0" id="text-entity-weightclass-b53b802a-2e20-5b58-895f-ffd31a72f32e-attr-1-type" class="er entityLabel">to56kg</text><rect height="21" width="53.125" y="24" x="53.125" class="er attributeBoxOdd"/><text style="dominant-baseline: middle; font-size: 10.2px;" transform="translate(58.125,34.5)" y="0" x="0" id="text-entity-weightclass-b53b802a-2e20-5b58-895f-ffd31a72f32e-attr-1-name" class="er entityLabel">to56kg</text></g><g transform="translate(626.25,587 )" id="entity-gender-771e2534-4274-5416-a704-0054fabc14f5"><rect height="66" width="100.34375" y="0" x="0" class="er entityBox"/><text style="dominant-baseline: middle; text-anchor: middle; font-size: 12px;" transform="translate(50.171875,12)" y="0" x="0" id="text-entity-gender-771e2534-4274-5416-a704-0054fabc14f5" class="er entityLabel">gender</text><rect height="21" width="50.171875" y="24" x="0" class="er attributeBoxOdd"/><text style="dominant-baseline: middle; font-size: 10.2px;" transform="translate(5,34.5)" y="0" x="0" id="text-entity-gender-771e2534-4274-5416-a704-0054fabc14f5-attr-1-type" class="er entityLabel">MALE</text><rect height="21" width="50.171875" y="24" x="50.171875" class="er attributeBoxOdd"/><text style="dominant-baseline: middle; font-size: 10.2px;" transform="translate(55.171875,34.5)" y="0" x="0" id="text-entity-gender-771e2534-4274-5416-a704-0054fabc14f5-attr-1-name" class="er entityLabel">MALE</text><rect height="21" width="50.171875" y="45" x="0" class="er attributeBoxEven"/><text style="dominant-baseline: middle; font-size: 10.2px;" transform="translate(5,55.5)" y="0" x="0" id="text-entity-gender-771e2534-4274-5416-a704-0054fabc14f5-attr-2-type" class="er entityLabel">FEMALE</text><rect height="21" width="50.171875" y="45" x="50.171875" class="er attributeBoxEven"/><text style="dominant-baseline: middle; font-size: 10.2px;" transform="translate(55.171875,55.5)" y="0" x="0" id="text-entity-gender-771e2534-4274-5416-a704-0054fabc14f5-attr-2-name" class="er entityLabel">FEMALE</text></g><g transform="translate(826.59375,553.5 )" id="entity-ag-4cb18e61-166f-5e62-af0b-18ecea552f3b"><rect height="133" width="104.20547485351562" y="0" x="0" class="er entityBox"/><text style="dominant-baseline: middle; text-anchor: middle; font-size: 12px;" transform="translate(52.10273742675781,12)" y="0" x="0" id="text-entity-ag-4cb18e61-166f-5e62-af0b-18ecea552f3b" class="er entityLabel">ag</text><rect height="21" width="52.10273742675781" y="24" x="0" class="er attributeBoxOdd"/><text style="dominant-baseline: middle; font-size: 10.2px;" transform="translate(5,34.5)" y="0" x="0" id="text-entity-ag-4cb18e61-166f-5e62-af0b-18ecea552f3b-attr-1-type" class="er entityLabel">Senior</text><rect height="21" width="52.10273742675781" y="24" x="52.10273742675781" class="er attributeBoxOdd"/><text style="dominant-baseline: middle; font-size: 10.2px;" transform="translate(57.10273742675781,34.5)" y="0" x="0" id="text-entity-ag-4cb18e61-166f-5e62-af0b-18ecea552f3b-attr-1-name" class="er entityLabel">Senior</text><rect height="22" width="52.10273742675781" y="45" x="0" class="er attributeBoxEven"/><text style="dominant-baseline: middle; font-size: 10.2px;" transform="translate(5,56)" y="0" x="0" id="text-entity-ag-4cb18e61-166f-5e62-af0b-18ecea552f3b-attr-2-type" class="er entityLabel">Youth_A</text><rect height="22" width="52.10273742675781" y="45" x="52.10273742675781" class="er attributeBoxEven"/><text style="dominant-baseline: middle; font-size: 10.2px;" transform="translate(57.10273742675781,56)" y="0" x="0" id="text-entity-ag-4cb18e61-166f-5e62-af0b-18ecea552f3b-attr-2-name" class="er entityLabel">Youth_A</text><rect height="22" width="52.10273742675781" y="67" x="0" class="er attributeBoxOdd"/><text style="dominant-baseline: middle; font-size: 10.2px;" transform="translate(5,78)" y="0" x="0" id="text-entity-ag-4cb18e61-166f-5e62-af0b-18ecea552f3b-attr-3-type" class="er entityLabel">Youth_B</text><rect height="22" width="52.10273742675781" y="67" x="52.10273742675781" class="er attributeBoxOdd"/><text style="dominant-baseline: middle; font-size: 10.2px;" transform="translate(57.10273742675781,78)" y="0" x="0" id="text-entity-ag-4cb18e61-166f-5e62-af0b-18ecea552f3b-attr-3-name" class="er entityLabel">Youth_B</text><rect height="22" width="52.10273742675781" y="89" x="0" class="er attributeBoxEven"/><text style="dominant-baseline: middle; font-size: 10.2px;" transform="translate(5,100)" y="0" x="0" id="text-entity-ag-4cb18e61-166f-5e62-af0b-18ecea552f3b-attr-4-type" class="er entityLabel">Youth_C</text><rect height="22" width="52.10273742675781" y="89" x="52.10273742675781" class="er attributeBoxEven"/><text style="dominant-baseline: middle; font-size: 10.2px;" transform="translate(57.10273742675781,100)" y="0" x="0" id="text-entity-ag-4cb18e61-166f-5e62-af0b-18ecea552f3b-attr-4-name" class="er entityLabel">Youth_C</text><rect height="22" width="52.10273742675781" y="111" x="0" class="er attributeBoxOdd"/><text style="dominant-baseline: middle; font-size: 10.2px;" transform="translate(5,122)" y="0" x="0" id="text-entity-ag-4cb18e61-166f-5e62-af0b-18ecea552f3b-attr-5-type" class="er entityLabel">Youth_D</text><rect height="22" width="52.10273742675781" y="111" x="52.10273742675781" class="er attributeBoxOdd"/><text style="dominant-baseline: middle; font-size: 10.2px;" transform="translate(57.10273742675781,122)" y="0" x="0" id="text-entity-ag-4cb18e61-166f-5e62-af0b-18ecea552f3b-attr-5-name" class="er entityLabel">Youth_D</text></g><g transform="translate(1030.7992248535156,576.5 )" id="entity-pg-d88d4246-2b1d-522f-89c4-687d0e1086aa"><rect height="87" width="100.90625" y="0" x="0" class="er entityBox"/><text style="dominant-baseline: middle; text-anchor: middle; font-size: 12px;" transform="translate(50.453125,12)" y="0" x="0" id="text-entity-pg-d88d4246-2b1d-522f-89c4-687d0e1086aa" class="er entityLabel">pg</text><rect height="21" width="50.453125" y="24" x="0" class="er attributeBoxOdd"/><text style="dominant-baseline: middle; font-size: 10.2px;" transform="translate(5,34.5)" y="0" x="0" id="text-entity-pg-d88d4246-2b1d-522f-89c4-687d0e1086aa-attr-1-type" class="er entityLabel">KADETS</text><rect height="21" width="50.453125" y="24" x="50.453125" class="er attributeBoxOdd"/><text style="dominant-baseline: middle; font-size: 10.2px;" transform="translate(55.453125,34.5)" y="0" x="0" id="text-entity-pg-d88d4246-2b1d-522f-89c4-687d0e1086aa-attr-1-name" class="er entityLabel">KADETS</text><rect height="21" width="50.453125" y="45" x="0" class="er attributeBoxEven"/><text style="dominant-baseline: middle; font-size: 10.2px;" transform="translate(5,55.5)" y="0" x="0" id="text-entity-pg-d88d4246-2b1d-522f-89c4-687d0e1086aa-attr-2-type" class="er entityLabel">LK1</text><rect height="21" width="50.453125" y="45" x="50.453125" class="er attributeBoxEven"/><text style="dominant-baseline: middle; font-size: 10.2px;" transform="translate(55.453125,55.5)" y="0" x="0" id="text-entity-pg-d88d4246-2b1d-522f-89c4-687d0e1086aa-attr-2-name" class="er entityLabel">LK1</text><rect height="21" width="50.453125" y="66" x="0" class="er attributeBoxOdd"/><text style="dominant-baseline: middle; font-size: 10.2px;" transform="translate(5,76.5)" y="0" x="0" id="text-entity-pg-d88d4246-2b1d-522f-89c4-687d0e1086aa-attr-3-type" class="er entityLabel">LK2</text><rect height="21" width="50.453125" y="66" x="50.453125" class="er attributeBoxOdd"/><text style="dominant-baseline: middle; font-size: 10.2px;" transform="translate(55.453125,76.5)" y="0" x="0" id="text-entity-pg-d88d4246-2b1d-522f-89c4-687d0e1086aa-attr-3-name" class="er entityLabel">LK2</text></g><g transform="translate(480.34375,20 )" id="entity-User-818c511a-4a32-5484-ba70-875d765a9175"><rect height="383" width="188.859375" y="0" x="0" class="er entityBox"/><text style="dominant-baseline: middle; text-anchor: middle; font-size: 12px;" transform="translate(94.4296875,12)" y="0" x="0" id="text-entity-User-818c511a-4a32-5484-ba70-875d765a9175" class="er entityLabel">User</text><rect height="21" width="74.734375" y="24" x="0" class="er attributeBoxOdd"/><text style="dominant-baseline: middle; font-size: 10.2px;" transform="translate(5,34.5)" y="0" x="0" id="text-entity-User-818c511a-4a32-5484-ba70-875d765a9175-attr-1-type" class="er entityLabel">String</text><rect height="21" width="98" y="24" x="74.734375" class="er attributeBoxOdd"/><text style="dominant-baseline: middle; font-size: 10.2px;" transform="translate(79.734375,34.5)" y="0" x="0" id="text-entity-User-818c511a-4a32-5484-ba70-875d765a9175-attr-1-name" class="er entityLabel">id</text><rect height="21" width="16.125" y="24" x="172.734375" class="er attributeBoxOdd"/><text style="dominant-baseline: middle; font-size: 10.2px;" transform="translate(177.734375,34.5)" y="0" x="0" id="text-entity-User-818c511a-4a32-5484-ba70-875d765a9175-attr-1-comment" class="er entityLabel">🗝️</text><rect height="21" width="74.734375" y="45" x="0" class="er attributeBoxEven"/><text style="dominant-baseline: middle; font-size: 10.2px;" transform="translate(5,55.5)" y="0" x="0" id="text-entity-User-818c511a-4a32-5484-ba70-875d765a9175-attr-2-type" class="er entityLabel">String</text><rect height="21" width="98" y="45" x="74.734375" class="er attributeBoxEven"/><text style="dominant-baseline: middle; font-size: 10.2px;" transform="translate(79.734375,55.5)" y="0" x="0" id="text-entity-User-818c511a-4a32-5484-ba70-875d765a9175-attr-2-name" class="er entityLabel">username</text><rect height="21" width="16.125" y="45" x="172.734375" class="er attributeBoxEven"/><text style="dominant-baseline: middle; font-size: 10.2px;" transform="translate(177.734375,55.5)" y="0" x="0" id="text-entity-User-818c511a-4a32-5484-ba70-875d765a9175-attr-2-comment" class="er entityLabel">❓</text><rect height="21" width="74.734375" y="66" x="0" class="er attributeBoxOdd"/><text style="dominant-baseline: middle; font-size: 10.2px;" transform="translate(5,76.5)" y="0" x="0" id="text-entity-User-818c511a-4a32-5484-ba70-875d765a9175-attr-3-type" class="er entityLabel">String</text><rect height="21" width="98" y="66" x="74.734375" class="er attributeBoxOdd"/><text style="dominant-baseline: middle; font-size: 10.2px;" transform="translate(79.734375,76.5)" y="0" x="0" id="text-entity-User-818c511a-4a32-5484-ba70-875d765a9175-attr-3-name" class="er entityLabel">password</text><rect height="21" width="16.125" y="66" x="172.734375" class="er attributeBoxOdd"/><text style="dominant-baseline: middle; font-size: 10.2px;" transform="translate(177.734375,76.5)" y="0" x="0" id="text-entity-User-818c511a-4a32-5484-ba70-875d765a9175-attr-3-comment" class="er entityLabel"/><rect height="21" width="74.734375" y="87" x="0" class="er attributeBoxEven"/><text style="dominant-baseline: middle; font-size: 10.2px;" transform="translate(5,97.5)" y="0" x="0" id="text-entity-User-818c511a-4a32-5484-ba70-875d765a9175-attr-4-type" class="er entityLabel">String</text><rect height="21" width="98" y="87" x="74.734375" class="er attributeBoxEven"/><text style="dominant-baseline: middle; font-size: 10.2px;" transform="translate(79.734375,97.5)" y="0" x="0" id="text-entity-User-818c511a-4a32-5484-ba70-875d765a9175-attr-4-name" class="er entityLabel">name</text><rect height="21" width="16.125" y="87" x="172.734375" class="er attributeBoxEven"/><text style="dominant-baseline: middle; font-size: 10.2px;" transform="translate(177.734375,97.5)" y="0" x="0" id="text-entity-User-818c511a-4a32-5484-ba70-875d765a9175-attr-4-comment" class="er entityLabel"/><rect height="21" width="74.734375" y="108" x="0" class="er attributeBoxOdd"/><text style="dominant-baseline: middle; font-size: 10.2px;" transform="translate(5,118.5)" y="0" x="0" id="text-entity-User-818c511a-4a32-5484-ba70-875d765a9175-attr-5-type" class="er entityLabel">String</text><rect height="21" width="98" y="108" x="74.734375" class="er attributeBoxOdd"/><text style="dominant-baseline: middle; font-size: 10.2px;" transform="translate(79.734375,118.5)" y="0" x="0" id="text-entity-User-818c511a-4a32-5484-ba70-875d765a9175-attr-5-name" class="er entityLabel">surename</text><rect height="21" width="16.125" y="108" x="172.734375" class="er attributeBoxOdd"/><text style="dominant-baseline: middle; font-size: 10.2px;" transform="translate(177.734375,118.5)" y="0" x="0" id="text-entity-User-818c511a-4a32-5484-ba70-875d765a9175-attr-5-comment" class="er entityLabel">❓</text><rect height="21" width="74.734375" y="129" x="0" class="er attributeBoxEven"/><text style="dominant-baseline: middle; font-size: 10.2px;" transform="translate(5,139.5)" y="0" x="0" id="text-entity-User-818c511a-4a32-5484-ba70-875d765a9175-attr-6-type" class="er entityLabel">authority</text><rect height="21" width="98" y="129" x="74.734375" class="er attributeBoxEven"/><text style="dominant-baseline: middle; font-size: 10.2px;" transform="translate(79.734375,139.5)" y="0" x="0" id="text-entity-User-818c511a-4a32-5484-ba70-875d765a9175-attr-6-name" class="er entityLabel">authority</text><rect height="21" width="16.125" y="129" x="172.734375" class="er attributeBoxEven"/><text style="dominant-baseline: middle; font-size: 10.2px;" transform="translate(177.734375,139.5)" y="0" x="0" id="text-entity-User-818c511a-4a32-5484-ba70-875d765a9175-attr-6-comment" class="er entityLabel"/><rect height="22" width="74.734375" y="150" x="0" class="er attributeBoxOdd"/><text style="dominant-baseline: middle; font-size: 10.2px;" transform="translate(5,161)" y="0" x="0" id="text-entity-User-818c511a-4a32-5484-ba70-875d765a9175-attr-7-type" class="er entityLabel">Int</text><rect height="22" width="98" y="150" x="74.734375" class="er attributeBoxOdd"/><text style="dominant-baseline: middle; font-size: 10.2px;" transform="translate(79.734375,161)" y="0" x="0" id="text-entity-User-818c511a-4a32-5484-ba70-875d765a9175-attr-7-name" class="er entityLabel">failed_logins</text><rect height="22" width="16.125" y="150" x="172.734375" class="er attributeBoxOdd"/><text style="dominant-baseline: middle; font-size: 10.2px;" transform="translate(177.734375,161)" y="0" x="0" id="text-entity-User-818c511a-4a32-5484-ba70-875d765a9175-attr-7-comment" class="er entityLabel"/><rect height="21" width="74.734375" y="172" x="0" class="er attributeBoxEven"/><text style="dominant-baseline: middle; font-size: 10.2px;" transform="translate(5,182.5)" y="0" x="0" id="text-entity-User-818c511a-4a32-5484-ba70-875d765a9175-attr-8-type" class="er entityLabel">String</text><rect height="21" width="98" y="172" x="74.734375" class="er attributeBoxEven"/><text style="dominant-baseline: middle; font-size: 10.2px;" transform="translate(79.734375,182.5)" y="0" x="0" id="text-entity-User-818c511a-4a32-5484-ba70-875d765a9175-attr-8-name" class="er entityLabel">email</text><rect height="21" width="16.125" y="172" x="172.734375" class="er attributeBoxEven"/><text style="dominant-baseline: middle; font-size: 10.2px;" transform="translate(177.734375,182.5)" y="0" x="0" id="text-entity-User-818c511a-4a32-5484-ba70-875d765a9175-attr-8-comment" class="er entityLabel"/><rect height="21" width="74.734375" y="193" x="0" class="er attributeBoxOdd"/><text style="dominant-baseline: middle; font-size: 10.2px;" transform="translate(5,203.5)" y="0" x="0" id="text-entity-User-818c511a-4a32-5484-ba70-875d765a9175-attr-9-type" class="er entityLabel">DateTime</text><rect height="21" width="98" y="193" x="74.734375" class="er attributeBoxOdd"/><text style="dominant-baseline: middle; font-size: 10.2px;" transform="translate(79.734375,203.5)" y="0" x="0" id="text-entity-User-818c511a-4a32-5484-ba70-875d765a9175-attr-9-name" class="er entityLabel">birthday</text><rect height="21" width="16.125" y="193" x="172.734375" class="er attributeBoxOdd"/><text style="dominant-baseline: middle; font-size: 10.2px;" transform="translate(177.734375,203.5)" y="0" x="0" id="text-entity-User-818c511a-4a32-5484-ba70-875d765a9175-attr-9-comment" class="er entityLabel">❓</text><rect height="21" width="74.734375" y="214" x="0" class="er attributeBoxEven"/><text style="dominant-baseline: middle; font-size: 10.2px;" transform="translate(5,224.5)" y="0" x="0" id="text-entity-User-818c511a-4a32-5484-ba70-875d765a9175-attr-10-type" class="er entityLabel">String</text><rect height="21" width="98" y="214" x="74.734375" class="er attributeBoxEven"/><text style="dominant-baseline: middle; font-size: 10.2px;" transform="translate(79.734375,224.5)" y="0" x="0" id="text-entity-User-818c511a-4a32-5484-ba70-875d765a9175-attr-10-name" class="er entityLabel">img</text><rect height="21" width="16.125" y="214" x="172.734375" class="er attributeBoxEven"/><text style="dominant-baseline: middle; font-size: 10.2px;" transform="translate(177.734375,224.5)" y="0" x="0" id="text-entity-User-818c511a-4a32-5484-ba70-875d765a9175-attr-10-comment" class="er entityLabel">❓</text><rect height="21" width="74.734375" y="235" x="0" class="er attributeBoxOdd"/><text style="dominant-baseline: middle; font-size: 10.2px;" transform="translate(5,245.5)" y="0" x="0" id="text-entity-User-818c511a-4a32-5484-ba70-875d765a9175-attr-11-type" class="er entityLabel">kup</text><rect height="21" width="98" y="235" x="74.734375" class="er attributeBoxOdd"/><text style="dominant-baseline: middle; font-size: 10.2px;" transform="translate(79.734375,245.5)" y="0" x="0" id="text-entity-User-818c511a-4a32-5484-ba70-875d765a9175-attr-11-name" class="er entityLabel">kup</text><rect height="21" width="16.125" y="235" x="172.734375" class="er attributeBoxOdd"/><text style="dominant-baseline: middle; font-size: 10.2px;" transform="translate(177.734375,245.5)" y="0" x="0" id="text-entity-User-818c511a-4a32-5484-ba70-875d765a9175-attr-11-comment" class="er entityLabel">❓</text><rect height="22" width="74.734375" y="256" x="0" class="er attributeBoxEven"/><text style="dominant-baseline: middle; font-size: 10.2px;" transform="translate(5,267)" y="0" x="0" id="text-entity-User-818c511a-4a32-5484-ba70-875d765a9175-attr-12-type" class="er entityLabel">weight_class</text><rect height="22" width="98" y="256" x="74.734375" class="er attributeBoxEven"/><text style="dominant-baseline: middle; font-size: 10.2px;" transform="translate(79.734375,267)" y="0" x="0" id="text-entity-User-818c511a-4a32-5484-ba70-875d765a9175-attr-12-name" class="er entityLabel">weight_class</text><rect height="22" width="16.125" y="256" x="172.734375" class="er attributeBoxEven"/><text style="dominant-baseline: middle; font-size: 10.2px;" transform="translate(177.734375,267)" y="0" x="0" id="text-entity-User-818c511a-4a32-5484-ba70-875d765a9175-attr-12-comment" class="er entityLabel">❓</text><rect height="21" width="74.734375" y="278" x="0" class="er attributeBoxOdd"/><text style="dominant-baseline: middle; font-size: 10.2px;" transform="translate(5,288.5)" y="0" x="0" id="text-entity-User-818c511a-4a32-5484-ba70-875d765a9175-attr-13-type" class="er entityLabel">gender</text><rect height="21" width="98" y="278" x="74.734375" class="er attributeBoxOdd"/><text style="dominant-baseline: middle; font-size: 10.2px;" transform="translate(79.734375,288.5)" y="0" x="0" id="text-entity-User-818c511a-4a32-5484-ba70-875d765a9175-attr-13-name" class="er entityLabel">gender</text><rect height="21" width="16.125" y="278" x="172.734375" class="er attributeBoxOdd"/><text style="dominant-baseline: middle; font-size: 10.2px;" transform="translate(177.734375,288.5)" y="0" x="0" id="text-entity-User-818c511a-4a32-5484-ba70-875d765a9175-attr-13-comment" class="er entityLabel">❓</text><rect height="21" width="74.734375" y="299" x="0" class="er attributeBoxEven"/><text style="dominant-baseline: middle; font-size: 10.2px;" transform="translate(5,309.5)" y="0" x="0" id="text-entity-User-818c511a-4a32-5484-ba70-875d765a9175-attr-14-type" class="er entityLabel">ag</text><rect height="21" width="98" y="299" x="74.734375" class="er attributeBoxEven"/><text style="dominant-baseline: middle; font-size: 10.2px;" transform="translate(79.734375,309.5)" y="0" x="0" id="text-entity-User-818c511a-4a32-5484-ba70-875d765a9175-attr-14-name" class="er entityLabel">ag</text><rect height="21" width="16.125" y="299" x="172.734375" class="er attributeBoxEven"/><text style="dominant-baseline: middle; font-size: 10.2px;" transform="translate(177.734375,309.5)" y="0" x="0" id="text-entity-User-818c511a-4a32-5484-ba70-875d765a9175-attr-14-comment" class="er entityLabel">❓</text><rect height="21" width="74.734375" y="320" x="0" class="er attributeBoxOdd"/><text style="dominant-baseline: middle; font-size: 10.2px;" transform="translate(5,330.5)" y="0" x="0" id="text-entity-User-818c511a-4a32-5484-ba70-875d765a9175-attr-15-type" class="er entityLabel">pg</text><rect height="21" width="98" y="320" x="74.734375" class="er attributeBoxOdd"/><text style="dominant-baseline: middle; font-size: 10.2px;" transform="translate(79.734375,330.5)" y="0" x="0" id="text-entity-User-818c511a-4a32-5484-ba70-875d765a9175-attr-15-name" class="er entityLabel">pg</text><rect height="21" width="16.125" y="320" x="172.734375" class="er attributeBoxOdd"/><text style="dominant-baseline: middle; font-size: 10.2px;" transform="translate(177.734375,330.5)" y="0" x="0" id="text-entity-User-818c511a-4a32-5484-ba70-875d765a9175-attr-15-comment" class="er entityLabel">❓</text><rect height="21" width="74.734375" y="341" x="0" class="er attributeBoxEven"/><text style="dominant-baseline: middle; font-size: 10.2px;" transform="translate(5,351.5)" y="0" x="0" id="text-entity-User-818c511a-4a32-5484-ba70-875d765a9175-attr-16-type" class="er entityLabel">String</text><rect height="21" width="98" y="341" x="74.734375" class="er attributeBoxEven"/><text style="dominant-baseline: middle; font-size: 10.2px;" transform="translate(79.734375,351.5)" y="0" x="0" id="text-entity-User-818c511a-4a32-5484-ba70-875d765a9175-attr-16-name" class="er entityLabel">pushSubscription</text><rect height="21" width="16.125" y="341" x="172.734375" class="er attributeBoxEven"/><text style="dominant-baseline: middle; font-size: 10.2px;" transform="translate(177.734375,351.5)" y="0" x="0" id="text-entity-User-818c511a-4a32-5484-ba70-875d765a9175-attr-16-comment" class="er entityLabel">❓</text><rect height="21" width="74.734375" y="362" x="0" class="er attributeBoxOdd"/><text style="dominant-baseline: middle; font-size: 10.2px;" transform="translate(5,372.5)" y="0" x="0" id="text-entity-User-818c511a-4a32-5484-ba70-875d765a9175-attr-17-type" class="er entityLabel">DateTime</text><rect height="21" width="98" y="362" x="74.734375" class="er attributeBoxOdd"/><text style="dominant-baseline: middle; font-size: 10.2px;" transform="translate(79.734375,372.5)" y="0" x="0" id="text-entity-User-818c511a-4a32-5484-ba70-875d765a9175-attr-17-name" class="er entityLabel">timestamp</text><rect height="21" width="16.125" y="362" x="172.734375" class="er attributeBoxOdd"/><text style="dominant-baseline: middle; font-size: 10.2px;" transform="translate(177.734375,372.5)" y="0" x="0" id="text-entity-User-818c511a-4a32-5484-ba70-875d765a9175-attr-17-comment" class="er entityLabel"/></g><rect height="14" width="93.015625" y="374.84014892578125" x="184.70631408691406" class="er relationshipLabelBox"/><text style="text-anchor: middle; dominant-baseline: middle; font-size: 12px;" y="381.84014892578125" x="231.21412658691406" id="rel1" class="er relationshipLabel">enum:authority</text><rect height="14" width="60.140625" y="376.542236328125" x="329.8269348144531" class="er relationshipLabelBox"/><text style="text-anchor: middle; dominant-baseline: middle; font-size: 12px;" y="383.542236328125" x="359.8972473144531" id="rel2" class="er relationshipLabel">enum:kup</text><rect height="14" width="114.578125" y="491.9031066894531" x="417.1408996582031" class="er relationshipLabelBox"/><text style="text-anchor: middle; dominant-baseline: middle; font-size: 12px;" y="498.9031066894531" x="474.4299621582031" id="rel3" class="er relationshipLabel">enum:weight_class</text><rect height="14" width="80.931640625" y="486.63519287109375" x="634.5621337890625" class="er relationshipLabelBox"/><text style="text-anchor: middle; dominant-baseline: middle; font-size: 12px;" y="493.63519287109375" x="675.0279541015625" id="rel4" class="er relationshipLabel">enum:gender</text><rect height="14" width="53.296875" y="393.14117431640625" x="778.2726440429688" class="er relationshipLabelBox"/><text style="text-anchor: middle; dominant-baseline: middle; font-size: 12px;" y="400.14117431640625" x="804.9210815429688" id="rel5" class="er relationshipLabel">enum:ag</text><rect height="14" width="53.5625" y="372.14990234375" x="888.7267456054688" class="er relationshipLabelBox"/><text style="text-anchor: middle; dominant-baseline: middle; font-size: 12px;" y="379.14990234375" x="915.5079956054688" id="rel6" class="er relationshipLabel">enum:pg</text></svg>
